<svg width="16" height="16" viewBox="0 0 16 16" fill="none" xmlns="http://www.w3.org/2000/svg">
<path d="M14.0357 2.86727L14.4918 8.30179C14.564 9.04397 14.0746 9.71851 13.3538 9.90536C13.2581 9.93016 13.1585 9.93436 13.0596 9.93146L9.97051 9.57203C9.74226 9.54547 9.53939 9.77278 9.57165 9.99603C9.6422 10.4842 9.70889 11.2386 9.78094 12.0538C9.88584 13.2405 9.35414 14.0036 8.43775 14.442C7.95157 14.6746 7.50687 14.1644 7.29961 13.6743C6.61278 11.4345 5.5 10 4.5 9.5H2.5C1.94772 9.5 1.5 9.05228 1.5 8.5V2.5C1.5 1.94771 1.94772 1.5 2.5 1.5H5H12.5028C13.2966 1.5 13.9604 2.09202 14.0357 2.86727Z" stroke="#787369" stroke-linejoin="round"/>
<path d="M4.5 1.5V9.5" stroke="#787369" stroke-linecap="round"/>
</svg>
